# xmcd
#
# Track frame offsets: 
#        150
#        8557
#        29650
#        51801
#        87745
#        105849
#        147233
#        159465
#        172219
#        187885
#        208413
#        220916
#        239793
#        258022
#        276586
#        287334
#        298326
#        312655
#        343326
#
# Disc length: 4741 seconds
#
# Revision: 0
# Processed by: cddbd v1.5.2PL0 Copyright (c) Steve Scherf et al.
# Submitted via: ExactAudioCopy v0.99pb5
#
DISCID=34128313
DTITLE=Stevie Ray Vaughan And Double Trouble - Couldn't Stand The Weat
DTITLE=her (Legacy Edition) [CD1]
DYEAR=2010
DGENRE=Blues
TTITLE0=Scuttle Buttin'
TTITLE1=Couldn't Stand The Weather
TTITLE2=The Things (That) I Used To Do
TTITLE3=Voodoo Child (Slight Return)
TTITLE4=Cold Shot
TTITLE5=Tin Pan Alley (aka Roughest Place In Town)
TTITLE6=Honey Bee
TTITLE7=Stang's Swang
TTITLE8=Empty Arms
TTITLE9=Come On (Part III)
TTITLE10=Look At Little Sister
TTITLE11=The Sky Is Crying (Previously unreleased 1984 version)
TTITLE12=Hide Away
TTITLE13=Give Me Back My Wig
TTITLE14=Boot Hill (Previously unreleased 1984 version)
TTITLE15=Wham!
TTITLE16=Close To You
TTITLE17=Little Wing
TTITLE18=Stang's Swang (Previously unreleased alternate take)
EXTD=
EXTT0=
EXTT1=
EXTT2=
EXTT3=
EXTT4=
EXTT5=
EXTT6=
EXTT7=
EXTT8=
EXTT9=
EXTT10=
EXTT11=
EXTT12=
EXTT13=
EXTT14=
EXTT15=
EXTT16=
EXTT17=
EXTT18=
PLAYORDER=
